<svg xmlns="http://www.w3.org/2000/svg" width="1200" height="800" viewBox="0 0 1200 800" role="img" aria-labelledby="title desc">
  <title id="title">Blog header illustration</title>
  <desc id="desc">Abstract gradients and soft shapes representing updates and guides.</desc>
  <defs>
    <linearGradient id="bg" x1="0" y1="0" x2="1" y2="1">
      <stop offset="0%" stop-color="#e0e7ff" />
      <stop offset="50%" stop-color="#e0f2fe" />
      <stop offset="100%" stop-color="#f8fafc" />
    </linearGradient>
    <linearGradient id="accent" x1="0" y1="0" x2="1" y2="0">
      <stop offset="0%" stop-color="#6366f1" stop-opacity="0.85" />
      <stop offset="100%" stop-color="#0ea5e9" stop-opacity="0.85" />
    </linearGradient>
  </defs>
  <rect width="1200" height="800" fill="url(#bg)" />
  <circle cx="240" cy="180" r="140" fill="#c7d2fe" opacity="0.75" />
  <circle cx="980" cy="140" r="180" fill="#bae6fd" opacity="0.7" />
  <circle cx="940" cy="650" r="200" fill="#dbeafe" opacity="0.6" />
  <rect x="120" y="420" width="520" height="220" rx="28" fill="#ffffff" opacity="0.85" />
  <rect x="160" y="470" width="320" height="16" rx="8" fill="#c7d2fe" />
  <rect x="160" y="510" width="380" height="16" rx="8" fill="#bfdbfe" />
  <rect x="160" y="550" width="260" height="16" rx="8" fill="#c7d2fe" />
  <rect x="700" y="440" width="360" height="240" rx="36" fill="url(#accent)" opacity="0.22" />
  <path d="M740 510c68-42 168-42 236 0" fill="none" stroke="#6366f1" stroke-width="10" stroke-linecap="round" opacity="0.5" />
  <path d="M760 560c54-32 130-32 184 0" fill="none" stroke="#0ea5e9" stroke-width="10" stroke-linecap="round" opacity="0.5" />
</svg>
