<svg xmlns="http://www.w3.org/2000/svg" width="64" height="64" viewBox="0 0 64 64" fill="none" role="img" aria-label="CC">
  <rect x="4" y="4" width="56" height="56" rx="16" fill="#FF5A3D"/>
  <path d="M26.8 25.4c-4.6 0-7.8 3.2-7.8 6.6s3.2 6.6 7.8 6.6c2.2 0 4.2-.8 5.6-2.1l-1.9-2.2c-1 .9-2.2 1.4-3.7 1.4-2.8 0-4.7-1.8-4.7-3.7s1.9-3.7 4.7-3.7c1.5 0 2.7.5 3.7 1.4l1.9-2.2c-1.4-1.3-3.4-2.1-5.6-2.1z" fill="white" fill-opacity=".95"/>
  <path d="M42.5 25.4c-4.6 0-7.8 3.2-7.8 6.6s3.2 6.6 7.8 6.6c2.2 0 4.2-.8 5.6-2.1l-1.9-2.2c-1 .9-2.2 1.4-3.7 1.4-2.8 0-4.7-1.8-4.7-3.7s1.9-3.7 4.7-3.7c1.5 0 2.7.5 3.7 1.4l1.9-2.2c-1.4-1.3-3.4-2.1-5.6-2.1z" fill="white" fill-opacity=".95"/>
</svg>
